# xmcd CD database file
#
# Track frame offsets:
#	150
#	16315
#	28503
#	46733
#	62337
#	79437
#	89858
#	101734
#	116679
#	132527
#	146527
#	164210
#
# Disc length: 2397 seconds
#
# Revision: 1
# Processed by: cddbd v1.5.2PL0 Copyright (c) Steve Scherf et al.
# Submitted via: CDex 1.70beta2
#
DISCID=aa095b0c
DTITLE=Studio 99 - Neil Diamond - Very Best
DYEAR=1900
DGENRE=Country
TTITLE0=I Am I Said
TTITLE1=Cracklin' Rosie
TTITLE2=America
TTITLE3=Sweet Caroline
TTITLE4=Hello Again
TTITLE5=Kentucky Woman
TTITLE6=Solitary Man
TTITLE7=Love on the Rocks
TTITLE8=Song Sung Blue
TTITLE9=Red Red Wine
TTITLE10=Play Me
TTITLE11=Forever In Blue Jeans
EXTD=
EXTT0=
EXTT1=
EXTT2=
EXTT3=
EXTT4=
EXTT5=
EXTT6=
EXTT7=
EXTT8=
EXTT9=
EXTT10=
EXTT11=
PLAYORDER=
